# xmcd
#
# Track frame offsets:
#	150
#	12775
#	22272
#	34052
#	47037
#	58525
#	76812
#	87822
#	98962
#	111225
#	124197
#	138700
#
# Disc length: 2019 seconds
#
# Revision: 2
# Processed by: cddbd v1.4PL0 Copyright (c) Steve Scherf et al.
# Submitted via: EZCDDA 4.3.2
#
DISCID=9b07e10c
DTITLE=BO DIDDLEY - `THE LEGENDARY
DYEAR=1900
DGENRE=
TTITLE0=BO DIDDLEY
TTITLE1=CRACKIN, UP
TTITLE2=SIGNFLYING BLUES
TTITLE3=YOU DON`T LOVE ME YOU DON`T CARE
TTITLE4=SAY BOSS MAN
TTITLE5=SHE`S ALRIGHT
TTITLE6=I`M SORRY
TTITLE7=DIDDY DADDY
TTITLE8=SNEAKERS ON A ROOSTER
TTITLE9=THE STROY OF BO DIDDY
TTITLE10=SAY MAN
TTITLE11=OOH BABY
EXTD=
EXTT0=
EXTT1=
EXTT2=
EXTT3=
EXTT4=
EXTT5=
EXTT6=
EXTT7=
EXTT8=
EXTT9=
EXTT10=
EXTT11=
PLAYORDER=
